<?xml version="1.0" standalone="no"?>
<!DOCTYPE svg PUBLIC "-//W3C//DTD SVG 20010904//EN"
 "http://www.w3.org/TR/2001/REC-SVG-20010904/DTD/svg10.dtd">
<svg version="1.0" xmlns="http://www.w3.org/2000/svg"
 width="1280.000000pt" height="1075.000000pt" viewBox="0 0 1280.000000 1075.000000"
 preserveAspectRatio="xMidYMid meet">
<g transform="translate(0.000000,1075.000000) scale(0.100000,-0.100000)"
fill="#000000" stroke="none">
<path d="M6732 9783 c-380 -522 -698 -957 -706 -968 -13 -18 -17 -19 -38 -6
-13 8 -102 64 -198 123 -349 217 -583 309 -861 338 -326 35 -652 -93 -890
-348 -96 -103 -110 -122 -464 -627 -430 -614 -1541 -2190 -2594 -3680 -489
-693 -902 -1284 -916 -1313 -14 -29 -36 -90 -48 -136 -21 -81 -21 -84 -4 -155
38 -157 87 -245 197 -358 203 -207 510 -332 825 -336 66 -1 148 2 183 6 51 7
62 5 62 -6 0 -8 -37 -66 -83 -128 -45 -63 -92 -128 -105 -145 -17 -25 -69
-249 -237 -1019 -119 -543 -213 -990 -210 -993 3 -3 18 1 33 10 15 9 410 233
877 498 468 266 858 490 868 498 10 9 105 136 212 282 106 146 200 274 208
284 14 19 17 18 109 -27 108 -53 241 -91 375 -107 88 -10 462 -2 2963 60 1015
25 1746 43 2505 60 248 6 639 15 870 20 1130 26 1959 44 2560 55 160 3 354 8
433 11 l142 6 0 1689 0 1689 -63 0 c-91 0 -360 27 -512 51 -306 49 -586 129
-756 215 -73 36 -405 249 -1749 1119 -1662 1076 -2236 1445 -2247 1445 -5 0
-24 -20 -42 -46 -30 -40 -60 -55 -53 -25 1 7 316 442 698 967 383 526 697 963
698 971 1 10 -251 196 -667 494 -367 264 -672 479 -676 479 -5 0 -320 -426
-699 -947z m-743 -4348 c134 -179 484 -672 522 -737 194 -327 79 -627 -316
-825 -101 -51 -214 -91 -385 -136 -356 -94 -716 -149 -1269 -192 -226 -18
-281 -19 -281 -5 0 8 1430 1978 1514 2084 l30 39 44 -49 c23 -27 87 -107 141
-179z"/>
</g>
</svg>
